<svg xmlns="http://www.w3.org/2000/svg" viewBox="0 0 479.7 189.4"><path d="M377.7,167.8c4,0,6.7,2.6,6.6,6.4a6.4,6.4,0,0,1-6.5,6.3c-4,0-6.4-2.4-6.6-6.2S373.8,167.2,377.7,167.8Z" transform="translate(-16.1 -161.3)" style="fill:#010101"/><path d="M83.8,216c0,4.7-.1,9.3,0,14a2.5,2.5,0,0,1-1.8,2.8c-8.8,3.9-18,6.2-27.7,5.8-14.1-.5-25-6.5-32.7-18.5-4.3-6.8-5.6-14.1-5.4-21.8.3-15.3,8.4-26,21.4-32.8,8.3-4.3,17.5-4.9,26.9-3.6a82.5,82.5,0,0,1,16.8,4.8c1.4.6,2,1.2,1.9,2.8-.1,3.1,0,6.3,0,9.5,0,1.4-.2,1.6-1.8,1-6.7-2.8-13.5-5.8-20.9-6.7-14.8-1.7-28.1,7.2-30.7,21.3-1.6,8.2-.2,16.1,5.6,22.6,8.3,9.2,18.8,11.2,30.5,8.2,5.1-1.3,5.1-1.4,5.1-6.7,0-2.3.8-5.5-.4-6.8s-4.6-.5-7-.5c-6.2-.1-6.2,0-6.2-6.2s0-5.7,5.7-5.7H81.8c1.6,0,2,.5,2,2.1C83.7,206.4,83.8,211.2,83.8,216Z" transform="translate(-16.1 -161.3)" style="fill:#010101"/><path d="M121,215c-5.4,0-10.7.2-16.1,0-2.1-.1-2,1-1.8,2.4,1.1,5.1,6.6,9.5,11.9,9.9,7.4.5,13.8-2.5,20.1-5.6,2.8-1.3,2.8-1.3,2.8,1.7a21.6,21.6,0,0,0,0,3.6c.8,3.9-1.2,5.6-4.3,7.3-7.3,4.1-15.2,5-23.1,3.8-9.8-1.5-16-7.8-18.8-17.8a30.4,30.4,0,0,1,1.2-20.8,20,20,0,0,1,13.2-11.8c8.7-2.6,17-2.2,24.3,3.9,4.8,4,7,9.4,7.9,15.5v.5c.3,2.4,1.6,5.5,0,7s-4.5.4-6.8.4Zm-6.6-8.9c3.2,0,6.3-.1,9.4.1s2.4-.8,1.7-2.6a10.9,10.9,0,0,0-10.8-7,11.7,11.7,0,0,0-11.3,7.8c-.5,1.6,0,1.8,1.3,1.7Z" transform="translate(-16.1 -161.3)" style="fill:#010101"/><path d="M226,215H209.9c-1.6,0-1.9.6-1.6,2,1,5.5,6.2,9.9,11.9,10.3s13-2.1,19-5c3.9-1.9,3.9-1.9,3.9,2.4a3.4,3.4,0,0,0,0,1c1.3,5.4-1.9,7.6-6.2,9.5a38.5,38.5,0,0,1-21.1,2.9c-7-.9-12.6-4.8-16.3-11.1a36.3,36.3,0,0,1-3.4-7.6c-.5-1.7-.3-4.3-.1-6.5.2-4.2,0-8.3,1.7-12.3a21.4,21.4,0,0,1,15.2-13.4,26.4,26.4,0,0,1,17.3,1c8.1,3.5,11.9,10.2,13.2,18.6a28.8,28.8,0,0,1,.6,5.9c.1,1.8-.4,2.4-2.3,2.4Zm-6.5-8.9h10.3c1.3.1,1.5-.3,1.2-1.6a11.1,11.1,0,0,0-11.1-7.9c-5.6.1-10.4,3.6-11.5,8.2-.3,1.3.2,1.3,1.2,1.3Z" transform="translate(-16.1 -161.3)" style="fill:#010101"/><path d="M391.3,212c-.7-14.8,12.6-26.6,27.3-25.8s25.7,12,25.6,26.2-11.6,25.8-26.9,26S390.3,226,391.3,212Zm26.4,15.3c7.8,0,14.3-6.7,14.4-14.9s-6.4-15.1-14.2-15.2a14.8,14.8,0,0,0-14.5,15.1C403.4,220.6,409.8,227.3,417.7,227.3Z" transform="translate(-16.1 -161.3)" style="fill:#010101"/><path d="M289.1,203.8V193.7c.1-.6,0-1.1.8-1.7,8.6-6.2,18.1-7.4,28-4,6.3,2.2,8.3,7.8,8.6,13.9s.1,13.7.2,20.5v2.4c.1,4.1.3,4.2,3.8,2.5s3.1-1.5,3.1,1.8v.2c.4,3-.6,4.8-3.4,6.5s-6.9,2.6-10.6,2.4a4.3,4.3,0,0,1-3.5-2.1c-.8-1.4-1.6-1.9-3.4-.8-6.2,3.6-12.9,4.4-19.3,1s-8-11.6-4.1-17.7,9-7.7,14.8-9.5c3-1,5.7-2.5,8.9-3.1s2.2-4.6.2-6.6-5.9-2.5-9.1-1.9C298.8,198.3,294.1,200.9,289.1,203.8Zm25.6,16.1v-5c0-.5.1-1.5-.9-1.1-4.5,1.8-9.4,3.1-12.7,7-1.9,2.2-1.6,5.6.6,7s7,1.1,10.5-.2,2.5-3.4,2.5-5.6Z" transform="translate(-16.1 -161.3)" style="fill:#010101"/><path d="M157.7,192.2a12.2,12.2,0,0,1,9.2-5.6c5.4-.5,11.2-.6,15.9,3.4a17.9,17.9,0,0,1,6.1,14.1c.1,10.4,0,20.8.1,31.2,0,1.7-.5,2.1-2,2.1a49.5,49.5,0,0,0-7.7,0c-1.8.1-2.1-.7-2.1-2.3.1-8.7.1-17.5.1-26.2v-2.4c-.1-5.6-1.8-8.5-5.7-9.6s-11.2.9-13.6,4.6a4.5,4.5,0,0,0-.5,2.8c0,10.2,0,20.4.1,30.7,0,1.7-.4,2.5-2.3,2.4s-5.2-.1-7.9-.1-1.6-.3-1.6-1.6v-47c0-1.1.3-1.5,1.5-1.5a67.7,67.7,0,0,0,7.8,0c2-.2,2.8.5,2.5,2.4A12.7,12.7,0,0,0,157.7,192.2Z" transform="translate(-16.1 -161.3)" style="fill:#010101"/><path d="M451.6,212.1c0-7.6,0-15.3-.1-22.9,0-1.6.4-2.1,2-2s5.1.1,7.6,0,2.4.2,2.1,1.9-.4,1.5.5,1.9,1.2-.6,1.7-1c5.9-5.1,19.9-5,25.5,2.6a17.7,17.7,0,0,1,3.7,11.1c.2,10.6.1,21.2.2,31.8,0,1.7-.7,1.9-2,1.8s-5.1-.1-7.7.1-2.1-.6-2.1-2.2c.1-9.1.1-18.2,0-27.4a26.3,26.3,0,0,0-.6-4.8c-.8-4.6-4.1-5.8-7.9-6.3s-9.5,2-11,4.9a4.8,4.8,0,0,0-.3,2.6c0,10.3-.1,20.5.1,30.8,0,2-.6,2.5-2.5,2.4a42.1,42.1,0,0,0-7.1,0c-1.7.1-2.2-.4-2.2-2.2C451.6,227.5,451.6,219.8,451.6,212.1Z" transform="translate(-16.1 -161.3)" style="fill:#010101"/><path d="M365.9,224.9c0,3.2-.1,6.2,0,9.3,0,1.1-.6,1.5-1.4,1.9a24.8,24.8,0,0,1-18.7.9c-4.1-1.4-6-5.2-6.5-9.3-1.3-9-.5-18.1-.5-27.1,0-2.6-.8-3.4-3.2-3a15.3,15.3,0,0,1-3.7,0c-.6,0-1.6.5-1.6-.7s-.5-1.4.3-2.3c5.3-5.7,10.6-11.5,15.7-17.3a3.4,3.4,0,0,1,3.6-1c1.4.3.6,1.8.7,2.7.2,2.7-1.1,6.1.5,7.8s5,.3,7.6.4,5-.7,6.3.4.3,4.1.5,6.3a10.8,10.8,0,0,0,0,1.8c.2,1.5-.3,2-1.9,2H352.3c-1.4,0-1.8.4-1.7,1.8.1,7.4.2,14.8,0,22.3,0,4.8,3,5.9,6.8,5.4A76.2,76.2,0,0,0,365.9,224.9Z" transform="translate(-16.1 -161.3)" style="fill:#010101"/><path d="M262.8,195.5c2.1-2.7,3.4-5.9,6.6-7.5,5.5-2.9,10.6-1.7,15.4,1.6,3,2.1,3,2.2,1.1,5.3a39.9,39.9,0,0,0-2.7,4.4c-.9,2.3-2.2,2.3-4,1.1-10-6.2-15.7,1.1-16.2,9.5s-.2,16.8-.1,25.2c0,1.9-.6,2.4-2.4,2.3a42.1,42.1,0,0,0-7.1,0c-1.8.1-2.3-.4-2.3-2.3.1-13.6.1-27.2.1-40.7,0-2.3-1-5.4.5-6.8s4.3-.4,6.5-.4c4.6,0,4.6,0,4.6,4.7Z" transform="translate(-16.1 -161.3)" style="fill:#010101"/><path d="M383.8,212.5c0,7.6-.1,15.1,0,22.6.1,1.9-.5,2.4-2.3,2.3s-5.1-.1-7.6-.1-1.8-.2-1.8-1.7c.1-15.5.1-31.1,0-46.7,0-1.4.5-1.8,1.8-1.7a64.2,64.2,0,0,0,7.6,0c2.1-.2,2.4.7,2.3,2.5C383.7,197.3,383.8,204.9,383.8,212.5Z" transform="translate(-16.1 -161.3)" style="fill:#010101"/><path d="M417.7,227.3c-7.9,0-14.3-6.7-14.3-15a14.8,14.8,0,0,1,14.5-15.1c7.8.1,14.3,7,14.2,15.2S425.5,227.3,417.7,227.3Z" transform="translate(-16.1 -161.3)" style="fill:#fefefe"/><path d="M416.2,323.9c-4.5-5.2-3.9-7.4,1.8-11.3-6.4-2-8.3-7.3-8.8-12.9s2.8-14,11-16.6a30.9,30.9,0,0,1,10-1.7h18.1c1.4-.1,2.1.3,2,1.8s.6,4.8-.3,6.5-4,.3-6,1.2c3.5,4.9,3.2,10.1.7,15.1s-7.4,7.6-13,8.5c-2,.3-3.9.8-5.9,1.3s-1.8.7-1.8,1.7,1,1.1,1.7,1.5c3.5,1.7,7.5,2,11.3,2.9s8.1,2.2,10.8,5.7c5.2,6.5,3.1,15.5-4.2,19.6-3.6,1.9-7.4,2.6-11.4,3.2s-10.4-.1-15.5-1.2c-9.2-2-13.6-11.5-9.3-19.6C409.3,326.1,412.7,324.9,416.2,323.9Zm11.4,16.9c3.5.1,6.7-.1,9.7-1.7,1.4-.7,2.6-1.7,2.6-3.3a3.6,3.6,0,0,0-2.5-3.4,25.1,25.1,0,0,0-17.5-1c-1.8.6-3.5,1.7-3.5,4.1s1.6,3.4,3.5,4.2A17.2,17.2,0,0,0,427.6,340.8Zm.6-35.2c5.1,0,8.1-2.7,8.1-7.2s-3.4-7.5-8.3-7.5-7.9,3.1-7.9,7.6S422.9,305.7,428.2,305.6Z" transform="translate(-16.1 -161.3)" style="fill:#f6c915"/><path d="M177.7,316.6c0,6.3,0,6.3-5.9,8.8a49.4,49.4,0,0,1-23.4,3.8c-7-.6-13.3-3.6-18.9-8a34.8,34.8,0,0,1-12.7-20.5,34.5,34.5,0,0,1,1.5-20.1c4.7-12,13.3-19.5,25.8-22.2,10.9-2.3,21.4-.6,31.4,4,1.2.6,1.8,1.2,1.7,2.6s-.1,5.6,0,8.4-.4,1.9-2,1.3a100.3,100.3,0,0,0-11.9-4.5c-7.2-2.1-14.3-2.4-21.2.7a23.2,23.2,0,0,0-13.8,19.5c-.9,10.3,2.7,18.6,11.5,24.1s16.2,4.3,24.6,1.4a66.4,66.4,0,0,0,11.2-5.1c1.5-.7,2.3-.6,2.1,1.3S177.7,315.1,177.7,316.6Z" transform="translate(-16.1 -161.3)" style="fill:#f6c915"/><path d="M479.6,307.2c-4.5,0-9.1.2-13.6,0-2.5-.2-2.6,1-2.2,2.8,1.2,4.9,6.1,8.6,11.6,8.7s12.1-2.6,17.6-5.5c2.2-1.2,2.4-.5,2.3,1.4a3.4,3.4,0,0,0,0,1c1.3,6.1-1.8,9.2-7.2,11s-8.1,2.7-12.3,2.6c-11.5-.3-20.7-5.8-23.1-19.5-1-5.8-.8-11.5,1.7-16.9s7.3-10.1,14-11.6,12.7-1,18.2,2.9,8.9,11.2,9.2,18.7c.2,4.4.1,4.4-4.3,4.4Zm-5.7-8.4c2.8,0,5.6-.1,8.4.1s2.2-.7,1.6-2.3a9.9,9.9,0,0,0-9.6-6.4c-5,0-8.7,2.5-10.2,6.8-.5,1.3-.4,1.9,1.2,1.9Z" transform="translate(-16.1 -161.3)" style="fill:#f6c915"/><path d="M341,307.2c-4.6,0-9.2.1-13.7,0-2.6-.1-2.7.9-2,2.9a12.4,12.4,0,0,0,14.3,8.5,44.8,44.8,0,0,0,14.7-5.4c2-1,2.4-.5,2.2,1.4a6.5,6.5,0,0,0,0,2.4c1.2,4.8-1.4,7.4-5.5,9s-9.3,3.5-14.3,3.2c-11.9-.5-19.7-5.6-22.5-18.3-1.5-6.6-1.4-13.8,2.5-20.2a20.3,20.3,0,0,1,16.3-10c7-.6,13,.9,17.9,5.9s6.4,12.2,6.3,19.4c0,1.6-1.2,1.2-2,1.2Zm-6-8.4h8.2c2.6,0,2.8-.2,1.8-2.6-1.8-4.1-5.4-6.2-10.1-6a10.3,10.3,0,0,0-9.6,6.9c-.6,1.6,0,1.8,1.4,1.8Z" transform="translate(-16.1 -161.3)" style="fill:#f6c915"/><path d="M196,286c5-5.4,10.7-6,16.6-4.7,7.4,1.6,11.8,6.9,11.9,14.5.2,10,0,20.1.1,30.2,0,1.5-.4,2-1.9,1.9s-6.4.9-8.2-.5-.5-5.1-.5-7.7q-.1-9.7,0-19.5a16.6,16.6,0,0,0-1.1-5.8c-1.1-3.2-5.7-5-10-4s-7,3.8-7,8.7c0,8.8,0,17.6.1,26.3,0,2-.5,2.7-2.5,2.5h-5.8c-1.8.2-2.4-.5-2.4-2.3.1-8.9.1-17.7.1-26.6,0-12.6,0-25.2-.1-37.8,0-2.2.7-3,2.8-2.7s5.5-1,7.2.4.6,4.6.6,7C196.1,272.4,196,278.8,196,286Z" transform="translate(-16.1 -161.3)" style="fill:#f6c915"/><path d="M231.7,296.7c0-3.2.1-6,0-8.8a3.4,3.4,0,0,1,1.8-3c7.3-4.3,15-5.6,23.2-3.2,5.4,1.6,8.3,6.3,8.9,12,.7,7.4.2,14.7.3,22.1.1,1.3.2,2.5.2,4.1l4.2-1.9c1.2-.6,1.7-.3,1.8,1.1.4,5.2-3,9-9,9.5-2.8.3-5.9.7-7.6-2.6-.4-.9-1.4-.5-2.2,0-4.6,3.1-9.7,3.4-14.9,2.1s-6.8-3.3-7.7-7.2-.7-8.5,2.5-12.2,11.1-6.5,17.1-8.8l1.4-.6c1.1-.4,2.8-.1,2.8-2s.3-4.2-2.1-5.4c-4.4-2.1-8.4-.9-12.5.7C237.3,293.7,234.7,295.2,231.7,296.7ZM255,311.8c0-1.5-.1-3,0-4.5s-.2-1.5-1.2-1c-3.8,1.5-7.8,2.7-10.7,5.7s-2,6.4.8,7.6,6.5.4,9.5-1.2,1.2-3.5,1.5-5.3A5.7,5.7,0,0,0,255,311.8Z" transform="translate(-16.1 -161.3)" style="fill:#f6c915"/><path d="M374.5,285.6c6.2-5.7,15.5-6.5,21.9-2.1,4.5,3.1,6.2,7.7,6.3,12.9.2,9.8,0,19.6.1,29.4,0,1.6-.4,2.2-2,2.1h-6.3c-1.9.2-2.4-.6-2.4-2.4.1-8.5.1-16.9.1-25.4,0-3.8-.6-7.5-4.6-9.1a10.8,10.8,0,0,0-12.5,3.1,4.1,4.1,0,0,0-.9,3.1c0,9.3,0,18.6.1,27.9,0,2.1-.5,3-2.8,2.8a40.1,40.1,0,0,0-6,0c-1.3.1-1.9-.3-1.9-1.8.1-14.3.1-28.7,0-43.1,0-1.2.4-1.7,1.7-1.6h4.5C374,281.4,374,281.4,374.5,285.6Z" transform="translate(-16.1 -161.3)" style="fill:#f6c915"/><path d="M306.9,293.5c0,10.7-.1,21.4,0,32.1,0,2-.5,2.6-2.5,2.4a37.4,37.4,0,0,0-5.8,0c-2.2.3-2.5-.7-2.5-2.7,0-21.4.1-42.9,0-64.3,0-2.1.6-2.8,2.6-2.6a27.8,27.8,0,0,0,5,0c2.5-.3,3.3.4,3.2,3C306.8,272.1,306.9,282.8,306.9,293.5Z" transform="translate(-16.1 -161.3)" style="fill:#f6c915"/><path d="M275.6,293.1c0-10.7.1-21.4,0-32.1,0-1.9.5-2.7,2.5-2.6a27.2,27.2,0,0,0,5.7,0c2.1-.1,2.6.7,2.5,2.6-.1,4.4,0,8.8,0,13.2,0,17-.1,34,0,51,0,2.1-.5,3-2.7,2.7s-5.8,1-7.4-.4-.5-4.9-.6-7.4Z" transform="translate(-16.1 -161.3)" style="fill:#f6c915"/><path d="M255,311.8a5.7,5.7,0,0,1-.1,1.3c-.3,1.8,1,4-1.5,5.3s-6.1,2.6-9.5,1.2-3.2-5.1-.8-7.6,6.9-4.2,10.7-5.7c1-.5,1.2.2,1.2,1S255,310.3,255,311.8Z" transform="translate(-16.1 -161.3)" style="fill:#fefefe"/></svg>