<svg xmlns="http://www.w3.org/2000/svg" viewBox="0 0 332.9 236.1"><path d="M228.8,333.9c-2.5-.5-4.4,1.3-6.5,2a103,103,0,0,1-20.4,5,88.7,88.7,0,0,1-23,.4,92.1,92.1,0,0,1-37.3-12.1A100.9,100.9,0,0,1,120,312.6a106.3,106.3,0,0,1-19.4-28,109.5,109.5,0,0,1-8.7-27.8c-2.2-11.9-1.7-24.1-1.9-36.1,0-1.4.3-2,1.8-1.9h1.3l104.9-.2c2.6,0,3.3.7,3.3,3.3q-.3,20.1,0,40.2c0,2.7-.8,3.2-3.3,3.1H149.4c-.8,0-1.8-.4-2.2.3s.5,1.5.9,2.2c8.2,12.6,19.6,20.4,34.4,22.6a43.6,43.6,0,0,0,25.6-3.5l3.1-1.3c26.7-13.5,36-49.2,19.3-74A3.6,3.6,0,0,0,229,210c-3.6-5.8-8.8-10-14.4-13.7a47.8,47.8,0,0,0-18.1-6.7,18.8,18.8,0,0,0-5.3-.6c-1.5,0-1.8-.7-1.7-1.9,0-15.8,0-31.6-.1-47.3,0-1.7.7-1.9,2.1-1.8a93.8,93.8,0,0,1,34.2,7.1,96.3,96.3,0,0,1,35.2,24.6c2.4,2.6,4.6,5.3,6.7,8,.5.7.9,1.3,1.7,1.5a3.5,3.5,0,0,0,.6,1.7,104.9,104.9,0,0,1,18.1,53,112.5,112.5,0,0,1-4.4,36.1,114.1,114.1,0,0,1-11,24.7c-10.6,16.7-24.6,29.6-42.6,38C229.4,332.9,228.9,333.2,228.8,333.9Z" transform="translate(-89.5 -138)" style="fill:#f6c915"/><path d="M228.8,333.9c.1-.7.6-1,1.2-1.2,18-8.4,32-21.3,42.6-38a48.6,48.6,0,0,0,34.3,22.4c12.9,2.2,24.9-.8,35.7-8.1a45.7,45.7,0,0,0,14.7-15.9,33.4,33.4,0,0,0,4.7-13.7c.1-.9.6-1.6.7-2.5.1-4.7.1-4.7,4.9-4.6l52.3.2c1.9,0,2.6.4,2.6,2.6a99.7,99.7,0,0,1-8,35.2,98.5,98.5,0,0,1-22.7,32.9,107.5,107.5,0,0,1-41.9,25.1,115.6,115.6,0,0,1-28.7,5.4c-4.4.2-8.9.5-13.2.3a112.5,112.5,0,0,1-19.2-2.8A114,114,0,0,1,259.9,360a105.9,105.9,0,0,1-31.1-26.1Z" transform="translate(-89.5 -138)" style="fill:#010101"/><path d="M288,233.9a104.9,104.9,0,0,0-18.1-53,3.5,3.5,0,0,1-.6-1.7c4.6-1.5,9-3.1,13.6-4.5a92.7,92.7,0,0,1,23.3-4.1c2.1-.1,4.2-.2,6.2-.5s2.4.4,2.3,2.3v52c0,1.3,0,2-1.7,2A51.4,51.4,0,0,0,288,233.9Z" transform="translate(-89.5 -138)" style="fill:#010101"/><path d="M229,210a3.6,3.6,0,0,1,1.5,1.5c16.7,24.8,7.4,60.5-19.3,74l-3.1,1.3c-1.1-2.4-.9-5.1-1.1-7.5s.2-7.4,0-11c-.4-5.5,1.1-10.7,1.9-16.1a86.4,86.4,0,0,1,8.3-24A77.8,77.8,0,0,1,229,210Z" transform="translate(-89.5 -138)" style="fill:#010101"/><path d="M145.1,216.9H92.8c-2.8,0-3.4-.8-3.2-3.4s-.5-3.4,3.3-3.4H198.2c1,0,2.5-.7,2.8.6a9.2,9.2,0,0,1-.2,5.7c-.3.8-1.6.3-2.4.3Z" transform="translate(-89.5 -138)" style="fill:#f6c915"/></svg>