<?xml version="1.0"?>
<svg xmlns="http://www.w3.org/2000/svg" xmlns:xlink="http://www.w3.org/1999/xlink" xmlns:svgjs="http://svgjs.com/svgjs" version="1.1" width="512" height="512" x="0" y="0" viewBox="0 0 512 512" style="enable-background:new 0 0 512 512" xml:space="preserve" class=""><g><g xmlns="http://www.w3.org/2000/svg"><path d="m415.807 96.193c-42.687-42.685-99.44-66.193-159.807-66.193s-117.12 23.508-159.807 66.193c-42.685 42.687-66.193 99.44-66.193 159.807s23.508 117.12 66.193 159.807c42.687 42.685 99.44 66.193 159.807 66.193s117.12-23.508 159.807-66.193c42.685-42.687 66.193-99.44 66.193-159.807s-23.508-117.12-66.193-159.807zm-159.807 355.807c-108.075 0-196-87.925-196-196s87.925-196 196-196 196 87.925 196 196-87.925 196-196 196z" fill="#ffc500" data-original="#ff405c" style="" class=""/><path d="m415.807 96.193c-42.687-42.685-99.44-66.193-159.807-66.193v30c108.075 0 196 87.925 196 196s-87.925 196-196 196v30c60.367 0 117.12-23.508 159.807-66.193 42.685-42.687 66.193-99.44 66.193-159.807s-23.508-117.12-66.193-159.807z" fill="#000000" data-original="#c30047" style="" class=""/><g><path d="m356 391h-200c-8.284 0-15-6.716-15-15v-20c0-41.355 33.645-75 75-75h80c41.355 0 75 33.645 75 75v20c0 8.284-6.716 15-15 15z" fill="#000000" data-original="#44ffe8" style="" class=""/><path d="m296 281h-40v110h100c8.284 0 15-6.716 15-15v-20c0-41.355-33.645-75-75-75z" fill="#ffc500" data-original="#00c6cb" style="" class=""/><g><path d="m256 301c-30.376 0-55-24.624-55-55v-45.973l20-19.027h90v65c0 30.376-24.624 55-55 55z" fill="#ffddce" data-original="#ffddce" style="" class=""/></g><path d="m256 181v120c30.376 0 55-24.624 55-55v-65z" fill="#ffcbbc" data-original="#ffcbbc" style="" class=""/><path d="m334.96 152.393c-.863-17.705-15.949-31.393-33.676-31.393h-60.284c-22.091 0-40 17.909-40 40v39.027h110l18.453-27.679c3.93-5.895 5.854-12.837 5.507-19.955z" fill="#af8663" data-original="#af8663" style="" class=""/><path d="m334.96 152.393c-.863-17.705-15.949-31.393-33.676-31.393h-45.284v79.027h55l18.453-27.679c3.93-5.895 5.854-12.837 5.507-19.955z" fill="#9d5e4a" data-original="#9d5e4a" style="" class=""/></g><g><g fill="#ff6b6b"><path d="m75 241h-60c-8.284 0-15 6.716-15 15s6.716 15 15 15h60c8.284 0 15-6.716 15-15s-6.716-15-15-15z" fill="#000000" data-original="#ff6b6b" style="" class=""/><path d="m256 422c-8.284 0-15 6.716-15 15v60c0 8.284 6.716 15 15 15s15-6.716 15-15v-60c0-8.284-6.716-15-15-15z" fill="#000000" data-original="#ff6b6b" style="" class=""/><path d="m256 0c-8.284 0-15 6.716-15 15v60c0 8.284 6.716 15 15 15s15-6.716 15-15v-60c0-8.284-6.716-15-15-15z" fill="#000000" data-original="#ff6b6b" style="" class=""/></g><path d="m271 497v-60c0-8.284-6.716-15-15-15v90c8.284 0 15-6.716 15-15z" fill="#ffc500" data-original="#ff405c" style="" class=""/><path d="m271 75v-60c0-8.284-6.716-15-15-15v90c8.284 0 15-6.716 15-15z" fill="#ffc500" data-original="#ff405c" style="" class=""/></g><path d="m497 241h-60c-8.284 0-15 6.716-15 15s6.716 15 15 15h60c8.284 0 15-6.716 15-15s-6.716-15-15-15z" fill="#ffc500" data-original="#ff405c" style="" class=""/></g></g></svg>
