<?xml version="1.0"?>
<svg xmlns="http://www.w3.org/2000/svg" xmlns:xlink="http://www.w3.org/1999/xlink" xmlns:svgjs="http://svgjs.com/svgjs" version="1.1" width="512" height="512" x="0" y="0" viewBox="0 0 511.918 511.918" style="enable-background:new 0 0 512 512" xml:space="preserve" class=""><g><g xmlns="http://www.w3.org/2000/svg"><path d="m255.96 0-1.258.004c-46 .324-89.382 18.516-122.156 51.225s-51.051 76.056-51.463 122.054c-.44 49.109 19.958 96.432 55.965 129.834 13.41 12.439 21.101 29.855 21.101 47.781v25h195.621v-25.215c0-17.867 7.543-35.068 20.694-47.191 35.829-33.029 56.378-79.905 56.378-128.61 0-96.43-78.452-174.882-174.882-174.882z" fill="#feda5f" data-original="#fff16b" style="" class=""/><path d="m255.96 0v375.9h97.811v-25.215c0-17.867 7.543-35.068 20.694-47.191 35.829-33.029 56.378-79.905 56.378-128.61-.001-96.432-78.453-174.884-174.883-174.884z" fill="#ffc500" data-original="#ffd321" style="" class=""/><path d="m356.184 189.883v-30h-23.297c-2.04-10.48-6.174-20.22-11.948-28.766l16.497-16.497-21.213-21.213-16.497 16.497c-8.546-5.774-18.286-9.909-28.766-11.948v-23.297h-30v23.297c-10.48 2.04-20.22 6.174-28.766 11.948l-16.497-16.497-21.213 21.213 16.497 16.497c-5.774 8.546-9.909 18.286-11.948 28.766h-23.297v30h23.297c2.039 10.48 6.174 20.22 11.948 28.766l-16.497 16.497 21.213 21.213 16.497-16.497c8.546 5.774 18.286 9.909 28.766 11.948v23.298h30v-23.298c10.48-2.04 20.22-6.174 28.766-11.948l16.497 16.497 21.213-21.213-16.497-16.497c5.774-8.546 9.909-18.286 11.948-28.766zm-100.225 33.368c-26.67 0-48.368-21.698-48.368-48.368s21.698-48.368 48.368-48.368 48.368 21.698 48.368 48.368-21.698 48.368-48.368 48.368z" fill="#537983" data-original="#537983" style="" class=""/><g><path d="m240.959 159.882h30v30.001h-30z" fill="#537983" data-original="#537983" style="" class=""/></g><path d="m194.039 414.364v35.634c0 34.143 27.777 61.92 61.92 61.92s61.92-27.777 61.92-61.92v-35.634z" fill="#537983" data-original="#537983" style="" class=""/><g fill="#3e5959"><path d="m317.879 449.999v-35.634h-61.92v97.554c34.143-.001 61.92-27.778 61.92-61.92z" fill="#000000" data-original="#3e5959" style="" class=""/><path d="m158.148 350.899h195.622v93.465h-195.622z" fill="#000000" data-original="#3e5959" style="" class=""/><path d="m356.184 189.883v-30h-23.297c-2.04-10.48-6.174-20.22-11.948-28.766l16.497-16.497-21.213-21.213-16.497 16.497c-8.546-5.774-18.286-9.909-28.766-11.948v-23.297h-15v51.856c26.67 0 48.368 21.698 48.368 48.368s-21.698 48.368-48.368 48.368v51.857h15v-23.298c10.48-2.04 20.22-6.174 28.766-11.948l16.497 16.497 21.213-21.213-16.497-16.497c5.774-8.546 9.909-18.286 11.948-28.766z" fill="#000000" data-original="#3e5959" style="" class=""/><path d="m255.959 159.882h15v30.001h-15z" fill="#000000" data-original="#3e5959" style="" class=""/></g><path d="m255.959 350.899h97.811v93.465h-97.811z" fill="#293939" data-original="#293939" style="" class=""/></g></g></svg>
