<?xml version="1.0"?>
<svg xmlns="http://www.w3.org/2000/svg" xmlns:xlink="http://www.w3.org/1999/xlink" xmlns:svgjs="http://svgjs.com/svgjs" version="1.1" width="512" height="512" x="0" y="0" viewBox="0 0 512 512" style="enable-background:new 0 0 512 512" xml:space="preserve" class=""><g><path xmlns="http://www.w3.org/2000/svg" d="m307.992188 219.746094c3.839843 0 7.675781-1.464844 10.605468-4.398438l96.757813-96.921875c5.859375-5.867187 5.863281-15.386719.003906-21.253906-5.855469-5.871094-15.351563-5.875-21.210937-.003906l-96.757813 96.917969c-5.859375 5.871093-5.863281 15.386718-.003906 21.257812 2.925781 2.933594 6.765625 4.402344 10.605469 4.402344zm0 0" fill="#f3f5fb" data-original="#f3f5fb" style=""/><path xmlns="http://www.w3.org/2000/svg" d="m373.925781 69.523438c0-38.136719 30.96875-69.160157 69.039063-69.160157 38.066406 0 69.035156 31.023438 69.035156 69.160157 0 38.132812-30.96875 69.15625-69.039062 69.15625-38.066407 0-69.035157-31.023438-69.035157-69.15625zm0 0" fill="#ffc500" data-original="#ffae47" style="" class=""/><path xmlns="http://www.w3.org/2000/svg" d="m205.019531 218.859375c3.839844 0 7.679688-1.46875 10.609375-4.40625 5.855469-5.867187 5.855469-15.386719-.003906-21.253906l-96.464844-96.625c-5.859375-5.867188-15.355468-5.867188-21.210937.003906-5.859375 5.871094-5.855469 15.386719 0 21.257813l96.464843 96.621093c2.929688 2.933594 6.769532 4.402344 10.605469 4.402344zm0 0" fill="#000000" data-original="#ced3e1" style="" class=""/><path xmlns="http://www.w3.org/2000/svg" d="m.882812 69.503906c0-38.132812 30.96875-69.15625 69.039063-69.15625 38.066406 0 69.035156 31.023438 69.035156 69.15625 0 38.132813-30.96875 69.15625-69.035156 69.15625-38.070313 0-69.039063-31.023437-69.039063-69.15625zm0 0" fill="#ffe281" data-original="#ffdd82" style="" class=""/><path xmlns="http://www.w3.org/2000/svg" d="m108.128906 418.703125c3.839844 0 7.675782-1.464844 10.605469-4.398437l96.527344-96.6875c5.859375-5.871094 5.859375-15.386719.003906-21.257813s-15.355469-5.871094-21.210937-.003906l-96.53125 96.691406c-5.859376 5.867187-5.859376 15.382813 0 21.253906 2.925781 2.933594 6.765624 4.402344 10.605468 4.402344zm0 0" fill="#000000" data-original="#ced3e1" style="" class=""/><path xmlns="http://www.w3.org/2000/svg" d="m.882812 441.949219c0-38.136719 30.96875-69.160157 69.039063-69.160157 38.066406 0 69.035156 31.023438 69.035156 69.160157 0 38.132812-30.96875 69.15625-69.035156 69.15625-38.070313 0-69.039063-31.023438-69.039063-69.15625zm0 0" fill="#ffe281" data-original="#ffdd82" style="" class=""/><path xmlns="http://www.w3.org/2000/svg" d="m404.753906 419.597656c3.839844 0 7.675782-1.464844 10.605469-4.402344 5.859375-5.871093 5.855469-15.386718-.003906-21.257812l-99.140625-99.304688c-5.859375-5.871093-15.359375-5.867187-21.214844.003907-5.855469 5.871093-5.855469 15.386719.003906 21.253906l99.144532 99.308594c2.925781 2.933593 6.765624 4.398437 10.605468 4.398437zm0 0" fill="#dbe2eb" data-original="#dbe2eb" style="" class=""/><path xmlns="http://www.w3.org/2000/svg" d="m373.925781 442.84375c0-38.136719 30.96875-69.160156 69.039063-69.160156 38.066406 0 69.035156 31.023437 69.035156 69.160156 0 38.132812-30.96875 69.15625-69.039062 69.15625-38.066407 0-69.035157-31.023438-69.035157-69.15625zm0 0" fill="#ffc500" data-original="#ffae47" style="" class=""/><path xmlns="http://www.w3.org/2000/svg" d="m329.097656 271.410156h98.292969c8.28125 0 15-6.730468 15-15.03125 0-8.300781-6.71875-15.027344-15-15.027344h-98.292969c-8.285156 0-15 6.726563-15 15.027344 0 8.300782 6.714844 15.03125 15 15.03125zm0 0" fill="#dbe2eb" data-original="#dbe2eb" style="" class=""/><path xmlns="http://www.w3.org/2000/svg" d="m426.734375 291.242188c-9.4375-9.453126-14.632813-22.019532-14.632813-35.382813 0-13.367187 5.199219-25.933594 14.632813-35.382813 19.472656-19.507812 51.160156-19.507812 70.632813 0 9.4375 9.449219 14.632812 22.015626 14.632812 35.382813s-5.195312 25.929687-14.632812 35.382813c-9.734376 9.753906-22.527344 14.628906-35.316407 14.628906-12.789062 0-25.578125-4.875-35.316406-14.628906zm0 0" fill="#b38a00" data-original="#ff7031" style="" class=""/><path xmlns="http://www.w3.org/2000/svg" d="m84.664062 271.410156h98.296876c8.28125 0 15-6.730468 15-15.03125 0-8.300781-6.71875-15.027344-15-15.027344h-98.296876c-8.28125 0-15 6.726563-15 15.027344 0 8.300782 6.71875 15.03125 15 15.03125zm0 0" fill="#aeb5c9" data-original="#aeb5c9" style="" class=""/><path xmlns="http://www.w3.org/2000/svg" d="m14.632812 291.242188c-9.4375-9.453126-14.632812-22.015626-14.632812-35.382813s5.195312-25.933594 14.632812-35.382813c19.472657-19.503906 51.160157-19.507812 70.632813 0 9.4375 9.449219 14.632813 22.015626 14.632813 35.382813s-5.195313 25.933594-14.632813 35.382813c-9.738281 9.753906-22.527344 14.628906-35.316406 14.628906-12.789063 0-25.582031-4.875-35.316407-14.628906zm0 0" fill="#ffc500" data-original="#ffae47" style="" class=""/><path xmlns="http://www.w3.org/2000/svg" d="m256.910156 197.847656c8.28125 0 15-6.726562 15-15.027344v-97.296874c0-8.300782-6.71875-15.027344-15-15.027344-8.285156 0-15 6.726562-15 15.027344v97.296874c0 8.300782 6.714844 15.027344 15 15.027344zm0 0" fill="#000000" data-original="#ced3e1" style="" class=""/><path xmlns="http://www.w3.org/2000/svg" d="m255.558594 441.222656c8.285156 0 15-6.730468 15-15.03125v-99.527344c0-8.300781-6.714844-15.03125-15-15.03125-8.28125 0-15 6.730469-15 15.03125v99.527344c0 8.300782 6.714844 15.03125 15 15.03125zm0 0" fill="#000000" data-original="#ced3e1" style="" class=""/><path xmlns="http://www.w3.org/2000/svg" d="m196.207031 315.472656c-16.035156-16.0625-24.867187-37.417968-24.867187-60.136718 0-22.714844 8.832031-44.074219 24.867187-60.136719 33.101563-33.15625 86.960938-33.152344 120.0625 0 16.035157 16.0625 24.867188 37.421875 24.867188 60.136719 0 22.71875-8.832031 44.074218-24.867188 60.136718-16.550781 16.578125-38.292969 24.867188-60.03125 24.867188s-43.480469-8.285156-60.03125-24.867188zm0 0" fill="#f3f5fb" data-original="#f3f5fb" style=""/><path xmlns="http://www.w3.org/2000/svg" d="m255.144531 170.359375c22.101563-.28125 44.296875 7.984375 61.125 24.839844 16.035157 16.066406 24.867188 37.421875 24.867188 60.140625 0 22.714844-8.832031 44.070312-24.867188 60.136718-16.550781 16.578126-38.292969 24.867188-60.03125 24.867188-.363281 0-.726562-.023438-1.09375-.027344zm0 0" fill="#dbe2eb" data-original="#dbe2eb" style="" class=""/><path xmlns="http://www.w3.org/2000/svg" d="m220.710938 85.398438c-9.4375-9.453126-14.632813-22.015626-14.632813-35.382813s5.195313-25.933594 14.632813-35.382813c19.472656-19.511718 51.160156-19.511718 70.632812 0 9.4375 9.449219 14.632812 22.015626 14.632812 35.382813s-5.195312 25.929687-14.632812 35.382813c-9.734375 9.75-22.527344 14.628906-35.316406 14.628906-12.789063 0-25.582032-4.878906-35.316406-14.628906zm0 0" fill="#ffe281" data-original="#ffdd82" style="" class=""/><path xmlns="http://www.w3.org/2000/svg" d="m256.910156.0195312c12.492188.2187498 24.921875 5.0820308 34.433594 14.6132808 9.4375 9.449219 14.632812 22.015626 14.632812 35.382813s-5.195312 25.929687-14.632812 35.382813c-9.511719 9.527343-21.941406 14.386718-34.433594 14.609374zm0 0" fill="#ffc500" data-original="#ffae47" style="" class=""/><path xmlns="http://www.w3.org/2000/svg" d="m220.710938 497.265625c-9.4375-9.453125-14.632813-22.019531-14.632813-35.382813 0-13.367187 5.195313-25.933593 14.632813-35.386718 19.472656-19.503906 51.160156-19.507813 70.632812 0 9.4375 9.453125 14.632812 22.019531 14.632812 35.386718 0 13.363282-5.195312 25.929688-14.632812 35.382813-9.734375 9.75-22.527344 14.628906-35.316406 14.628906-12.789063 0-25.582032-4.878906-35.316406-14.628906zm0 0" fill="#ffe281" data-original="#ffdd82" style="" class=""/><path xmlns="http://www.w3.org/2000/svg" d="m255.144531 411.886719c13.082031-.230469 26.238281 4.632812 36.199219 14.609375 9.4375 9.453125 14.632812 22.019531 14.632812 35.382812 0 13.367188-5.195312 25.933594-14.628906 35.382813-9.738281 9.753906-22.527344 14.632812-35.320312 14.632812-.292969 0-.585938-.015625-.882813-.023437zm0 0" fill="#ffc500" data-original="#ffae47" style="" class=""/></g></svg>
