<?xml version="1.0"?>
<svg xmlns="http://www.w3.org/2000/svg" xmlns:xlink="http://www.w3.org/1999/xlink" xmlns:svgjs="http://svgjs.com/svgjs" version="1.1" width="512" height="512" x="0" y="0" viewBox="0 0 512 512" style="enable-background:new 0 0 512 512" xml:space="preserve" class=""><g><path xmlns="http://www.w3.org/2000/svg" d="m400 104a24 24 0 0 0 24-24v-8l-16-16h-32v24a24 24 0 0 0 24 24z" fill="#ffceb6" data-original="#ffceb6" style=""/><path xmlns="http://www.w3.org/2000/svg" d="m376 56-6.63344-13.26688a12.94424 12.94424 0 0 1 -1.36656-5.78885 12.94426 12.94426 0 0 1 12.94426-12.94427h19.05574a24 24 0 0 1 24 24v24l-16-16z" fill="#000000" data-original="#c47220" style="" class=""/><path xmlns="http://www.w3.org/2000/svg" d="m448 118 25.00733 31.25917a68.41865 68.41865 0 0 1 14.99267 42.74083 68.41865 68.41865 0 0 1 -14.99267 42.74081l-25.00733 31.25919z" fill="#efb900" data-original="#f78e00" style="" class=""/><path xmlns="http://www.w3.org/2000/svg" d="m400 232h-56v-35.2l-32.57007 9.77-31.42993 9.43h-27.78v-32h11.78l64-32 22.79-39.88a31.9866 31.9866 0 0 1 27.78-16.12h21.43z" fill="#ffbfa1" data-original="#ffbfa1" style=""/><path xmlns="http://www.w3.org/2000/svg" d="m456 136v96h-112v-35.2l-32.57007 9.77-15.42993-38.57 32-16 22.79-39.88a31.9866 31.9866 0 0 1 27.78-16.12h37.43a40.0017 40.0017 0 0 1 40 40z" fill="#ffc500" data-original="#ffa100" style="" class=""/><path xmlns="http://www.w3.org/2000/svg" d="m136 464-16-184-16 168-40 16v-232h112v216z" fill="#000000" data-original="#718799" style="" class=""/><path xmlns="http://www.w3.org/2000/svg" d="m176 96h1.82007a32.011 32.011 0 0 1 29.97 20.76l16.20993 43.24 22.15991 11.07 14.91016 7.46a19.77841 19.77841 0 0 1 -8.85007 37.47h-.15991a19.67556 19.67556 0 0 1 -7.79-1.6l-19.17993-8.22-33.09016-14.18-16-40z" fill="#ffceb6" data-original="#ffceb6" style=""/><path xmlns="http://www.w3.org/2000/svg" d="m246.15991 171.07-21.06982 35.11-33.09009-14.18-16-40v80h-112v-136h113.82007a32.011 32.011 0 0 1 29.97 20.76l16.20993 43.24z" fill="#ffc500" data-original="#ffa100" style="" class=""/><path xmlns="http://www.w3.org/2000/svg" d="m24 248v-120a32 32 0 0 1 32-32h8v152z" fill="#ffc500" data-original="#ffa100" style="" class=""/><path xmlns="http://www.w3.org/2000/svg" d="m64 248v40h-16a24 24 0 0 1 -24-24v-16z" fill="#ffceb6" data-original="#ffceb6" style=""/><path xmlns="http://www.w3.org/2000/svg" d="m136 488h80v-8l-40-32-40 16z" fill="#c5dafa" data-original="#c5dafa" style="" class=""/><path xmlns="http://www.w3.org/2000/svg" d="m64 464v24h80v-8l-40-32z" fill="#e0edff" data-original="#e0edff" style="" class=""/><path xmlns="http://www.w3.org/2000/svg" d="m344 196.79993a8 8 0 0 1 5.36387-9.96147l5.81579-1.74469 17.62019-23.49377a8 8 0 0 1 11.19972-1.60027l.00026.0002a8 8 0 0 1 1.60032 11.20025l-19.19972 25.59962a8.00061 8.00061 0 0 1 -4.1016 2.86285l-8.33749 2.50114a8 8 0 0 1 -9.96134-5.36386z" fill="#efb900" data-original="#f78e00" style="" class=""/><path xmlns="http://www.w3.org/2000/svg" d="m128 136 8 48-16 16-16-16 8-48z" fill="#c29603" data-original="#ef5e3b" style="" class=""/><path xmlns="http://www.w3.org/2000/svg" d="m112 136-8-16 16-16 16 16-8 16z" fill="#c29603" data-original="#e04f2b" style="" class=""/><path xmlns="http://www.w3.org/2000/svg" d="m140.686 136-20.686-20.686-20.686 20.686a8.00018 8.00018 0 0 1 -11.31371.00024 8.00018 8.00018 0 0 1 -.00029-11.31424l26.34278-26.34278a8.00122 8.00122 0 0 1 11.31446 0l26.34276 26.34278a8.00018 8.00018 0 0 1 -.00025 11.3142 8.00018 8.00018 0 0 1 -11.31375-.0002z" fill="#efb900" data-original="#f78e00" style="" class=""/><path xmlns="http://www.w3.org/2000/svg" d="m120 104a24 24 0 0 1 -24-24v-8l16-16h32v24a24 24 0 0 1 -24 24z" fill="#ffceb6" data-original="#ffceb6" style=""/><path xmlns="http://www.w3.org/2000/svg" d="m144 56 6.63344-13.26688a12.94424 12.94424 0 0 0 1.36656-5.78885 12.94426 12.94426 0 0 0 -12.94426-12.94427h-19.05574a24 24 0 0 0 -24 24v24l16-16z" fill="#000000" data-original="#c47220" style="" class=""/><rect xmlns="http://www.w3.org/2000/svg" fill="#efb900" height="96" rx="8" width="16" x="56" y="136" data-original="#f78e00" style="" class=""/><path xmlns="http://www.w3.org/2000/svg" d="m384 464 16-184 16 168 40 16v-232h-112v216z" fill="#000000" data-original="#718799" style="" class=""/><path xmlns="http://www.w3.org/2000/svg" d="m384 488h-80v-8l40-32 40 16z" fill="#c5dafa" data-original="#c5dafa" style="" class=""/><path xmlns="http://www.w3.org/2000/svg" d="m456 464v24h-80v-8l40-32z" fill="#e0edff" data-original="#e0edff" style="" class=""/></g></svg>
